# xmcd
#
# Track frame offsets:
#	150
#	11625
#	23142
#	32554
#	40576
#	48401
#	62508
#	74862
#	84533
#	101666
#	119818
#	135001
#	148885
#	165156
#	187810
#	198761
#
# Disc length: 2837 seconds
#
# Revision: 0
# Processed by: cddbd v1.5.2PL0 Copyright (c) Steve Scherf et al.
# Submitted via: audiograbber 1.83.01
#
DISCID=d10b1310
DTITLE=Jason Lee Wilson - High Country
DYEAR=2006
DGENRE=
TTITLE0=High Country
TTITLE1=Ballad of Johnnie Walker
TTITLE2=Highway 9 (Dawsonville)
TTITLE3=I lied alone
TTITLE4=A Dog Like Me
TTITLE5=Nothing New with Pain
TTITLE6=Henry The Hammer
TTITLE7=Sittin´ In The Station
TTITLE8=I lied
TTITLE9=Gulf Of Dispear
TTITLE10=I Took A Little Trip
TTITLE11=Wah Yah Tsi
TTITLE12=Someday He´ll Take You Home
TTITLE13=Minin´ Coal
TTITLE14=Under The Cross
TTITLE15=Werris Creek
EXTD=Rhythm Bomb Records
EXTT0=
EXTT1=
EXTT2=
EXTT3=
EXTT4=
EXTT5=
EXTT6=
EXTT7=
EXTT8=
EXTT9=
EXTT10=
EXTT11=
EXTT12=
EXTT13=
EXTT14=
EXTT15=
PLAYORDER=
